<svg width="121" height="25" viewBox="0 0 121 25" fill="none" xmlns="http://www.w3.org/2000/svg">
<path d="M43.1592 0C49.6872 0.000124397 53.5918 3.13106 53.5918 9.65918C53.5917 18.1399 47.064 25.0067 37.4053 25.0068C30.9097 25.0068 26.9718 21.8759 26.9717 15.3154V15.3086C26.9717 6.82773 33.5002 0 43.1592 0ZM65.874 0.00683594C67.9959 0.00683594 70.8863 0.475437 73.21 1.15234L71.7969 9.52832H71.6602C70.6513 5.3565 68.5624 0.442771 65.5361 0.442383C64.3255 0.442383 62.6787 1.28242 62.6787 3.26758C62.6788 5.25259 64.462 6.72979 66.7139 8.61719C69.6102 11.0384 71.999 13.1931 71.999 16.9941C71.999 22.11 67.6902 25 62.1709 25C59.0079 25 55.578 24.0235 53.5928 23.249L55.2715 14.6768H55.4082C56.4821 19.1872 58.8057 24.5702 62.3398 24.5703C63.8889 24.5703 65.5028 23.5291 65.5029 21.0039C65.5029 18.8495 64.3247 17.8731 61.3633 15.3867C58.8055 13.2325 56.5539 11.3122 56.5537 7.68066C56.5537 2.66902 60.7908 0.00690786 65.874 0.00683594ZM18.0869 0.46875C24.0098 0.46875 26.9716 2.88984 26.9717 6.02051C26.9717 8.87784 24.5499 11.0644 21.1133 12.1123C22.1872 15.7116 23.0985 18.1726 23.7363 19.7217C25.0829 22.9809 26.2932 24.3285 26.3594 24.4014L26.3271 24.5381H16.5703C15.3272 20.6329 14.3836 17.066 13.5439 13.3691L12.6719 13.4336L11.1553 20.4307C10.6866 22.6501 10.7192 23.0931 12.3984 24.4014L12.3662 24.5381H0.181641L0.213867 24.4014V24.3945C2.60242 22.9822 2.77261 22.208 3.14355 20.4248L6.50781 4.5752C6.97636 2.35602 6.94381 1.92016 5.26465 0.605469L5.29785 0.46875H18.0869ZM41.8506 0.475586C38.1472 0.475586 35.6935 9.28758 35.6934 16.9287C35.6934 21.0682 36.4353 24.5311 38.7197 24.5312C42.3906 24.5312 44.9091 15.6145 44.9092 8.04492C44.9092 3.93795 44.1677 0.475635 41.8506 0.475586ZM108.779 0.475586L108.754 0.585938C105.975 2.40837 106 3.24796 106.898 5.32422L109.789 12.002L114.332 5.74707C114.781 5.1288 115.256 4.42544 115.256 3.58594C115.256 2.74644 114.748 1.90699 113.739 0.585938L113.766 0.475586V0.481445H120.697L120.671 0.592773C118.315 2.21987 116.375 3.89903 115.002 5.75391L110.01 12.4902L108.239 20.4307C107.764 22.5654 107.765 23.0406 109.561 24.3877L109.535 24.5312H97.3047L97.3633 24.3877C99.6087 23.0404 99.8042 22.6501 100.279 20.4307L101.796 13.2451L99.6611 7.97949V7.99902L98.3721 4.8291L98.3467 4.74512C97.3379 2.63636 95.5736 0.982525 92.71 0.982422H88.3623L86.1162 11.5332H87.21C89.7352 11.5331 91.8701 9.65253 93.0742 8.02539H93.2178L91.5898 15.6855H91.4473C90.8809 13.9153 89.4552 11.9825 86.9561 11.9824H85.9736L83.7861 22.3057C83.5586 23.3989 84.4566 24.0175 85.8037 24.0176H86.3379C89.7289 24.0174 93.348 19.9749 95.5674 16.4668H95.71L93.1846 24.5186H73.21L73.2686 24.375C75.3965 23.0539 75.7345 22.52 76.1836 20.418L79.5488 4.56934C80.024 2.35643 79.9981 1.90712 78.3125 0.585938L78.3389 0.475586H108.779ZM12.7959 12.8545H13.707C16.4341 12.8543 19.122 9.65889 19.1221 5.38281C19.1221 2.21964 17.6056 0.976617 15.8613 0.976562H15.2881L12.7959 12.8545Z" fill="black"/>
</svg>
