<svg width="33" height="33" viewBox="0 0 33 33" fill="none" xmlns="http://www.w3.org/2000/svg">
<path d="M28.8177 19.6067C29.3019 20.2706 29.5062 21.044 29.4986 21.8642C29.4986 22.4891 29.3246 23.0827 29.1052 23.6608C28.8328 24.3872 28.7269 25.1293 28.9312 25.9026C29.0446 26.3479 29.1279 26.801 29.196 27.254C29.2262 27.4259 29.196 27.6133 29.1581 27.7852C29.1279 27.918 29.0295 28.0117 28.8631 27.957C28.5075 27.8477 28.1519 27.7383 27.7963 27.6368C26.896 27.3712 26.0259 27.5352 25.1635 27.8399C24.823 27.9648 24.5052 28.1445 24.1724 28.2929C23.7033 28.5038 23.2191 28.6601 22.6971 28.7147C21.8194 28.8163 21.0023 28.6757 20.2231 28.2773C20.0415 28.1836 19.9432 28.2226 19.8448 28.3789C19.5195 28.9022 19.0655 29.2928 18.5662 29.6131C17.9156 30.0271 17.2119 30.2692 16.4402 30.3161C15.8501 30.3551 15.2524 30.3473 14.6623 30.4176C14.0344 30.4957 13.3989 30.5348 12.7936 30.7691C12.2337 30.98 11.7041 31.2613 11.2275 31.6362C11.0686 31.7612 10.9022 31.8862 10.713 31.9721C10.5088 32.0736 10.3726 32.0111 10.3045 31.7924C10.244 31.5893 10.191 31.3784 10.1532 31.1675C10.0624 30.6363 9.81272 30.1833 9.52523 29.7458C9.13938 29.1522 8.64005 28.6835 8.04236 28.3164C7.67921 28.0898 7.34632 27.8164 7.02856 27.5274C6.55949 27.09 6.35521 26.5119 6.21903 25.9026C6.00719 24.9262 6.30226 24.0982 6.90751 23.3561C6.92264 23.3405 6.93777 23.3171 6.96047 23.2858C6.82429 23.2312 6.6881 23.1843 6.55949 23.1296C5.84832 22.8015 5.18254 22.3953 4.63024 21.8329C4.04769 21.2471 3.57861 20.5597 3.04902 19.9269C2.76152 19.5832 2.47403 19.2473 2.18653 18.9115C1.97469 18.6615 1.74016 18.4584 1.4451 18.3256C1.37701 18.2944 1.31648 18.2553 1.24839 18.2162C0.839844 17.9741 0.824712 17.8179 1.15004 17.4585C1.50562 17.0758 1.65694 16.5915 1.75529 16.0759C1.84608 15.576 1.80825 15.0526 1.952 14.5605C2.29245 13.3732 2.9431 12.4671 4.11578 12.0296C4.35788 11.9437 4.59998 11.889 4.84965 11.8578C5.09931 11.8265 5.11445 11.8187 5.00853 11.5766C4.76642 11.0376 4.69833 10.4673 4.63024 9.88931C4.53189 9.05349 4.83452 8.36609 5.26576 7.69431C5.78779 6.8663 6.15094 5.96799 6.39304 5.00719C6.48383 4.64787 6.46113 4.27292 6.446 3.90579C6.42331 3.4996 6.53679 3.35899 6.93021 3.35899C7.29336 3.35899 7.65651 3.35899 8.01966 3.35899C8.42064 3.35899 8.80649 3.25744 9.19991 3.20276C9.83542 3.10903 10.4709 3.06216 11.0459 3.44492C11.1594 3.51522 11.2199 3.51522 11.3032 3.38243C11.5226 3.03872 11.7117 2.67159 11.9992 2.38257C12.5742 1.79671 13.2702 1.42177 14.0192 1.14837C14.3824 1.01558 14.7304 0.890594 15.0103 0.578138C15.2676 0.289117 15.6383 0.164135 16.009 0.0938325C16.705 -0.0467724 17.386 -0.00771544 18.0063 0.382854C18.1879 0.500024 18.3619 0.632818 18.5359 0.7578C18.9369 1.05463 19.3909 1.25773 19.8372 1.46864C20.3366 1.71079 20.7905 2.02324 21.1537 2.45287C21.305 2.63253 21.4563 2.67159 21.6833 2.59348C22.0313 2.4763 22.3944 2.406 22.7651 2.42162C23.3401 2.43725 23.9076 2.39038 24.4826 2.39819C25.0575 2.39819 25.3526 2.65597 25.4434 3.24182C25.5493 3.92922 25.8368 4.50726 26.3134 4.99938C26.5555 5.24935 26.7825 5.52274 27.0322 5.77271C27.471 6.21015 27.6601 6.77257 27.7736 7.36623C27.8266 7.62401 27.8266 7.88178 27.7887 8.13956C27.766 8.27235 27.8114 8.3036 27.9249 8.27235C28.3183 8.18643 28.7042 8.25673 29.0598 8.41296C29.491 8.59262 29.8617 8.86602 30.1644 9.24877C30.4367 9.60029 30.7394 9.92055 30.9588 10.3189C31.2084 10.7876 31.5867 11.1235 32.0482 11.3657C32.2979 11.4906 32.5022 11.7015 32.7897 11.7797C32.9258 11.8187 32.9637 12.0531 32.8729 12.2093C32.7745 12.389 32.6535 12.5452 32.5097 12.6936C32.0104 13.1935 31.8137 13.8184 31.7305 14.5136C31.6397 15.2792 31.5867 16.0603 31.3597 16.8024C31.0647 17.7554 30.467 18.4584 29.6726 19.0052C29.3851 19.2005 29.0976 19.388 28.795 19.5832L28.8177 19.6067ZM23.7865 13.4747C23.6957 13.5528 23.6352 13.6153 23.5595 13.67C23.4158 13.7716 23.3477 13.8887 23.3553 14.084C23.3704 14.5527 23.3477 15.0214 23.2947 15.4901C23.2267 16.0837 23.1434 16.6774 22.9694 17.2476C22.629 18.3334 21.9556 19.2005 21.0931 19.8957C20.3668 20.4894 19.4968 20.794 18.6267 21.0752C17.9534 21.2939 17.2725 21.458 16.5613 21.4892C15.6686 21.5283 14.8666 21.1377 14.0419 20.8721C13.9738 20.8487 13.9058 20.794 13.9209 20.7003C13.9738 20.3722 14.0344 20.0363 14.2235 19.7551C14.6472 19.1302 15.086 18.5209 15.7064 18.0913C16.1074 17.8101 16.531 17.5757 16.9925 17.4117C17.6886 17.1695 18.3392 16.8493 18.778 16.2087C19.0504 15.8103 19.4438 15.6072 19.8751 15.4901C20.5635 15.2948 21.2444 15.0526 21.774 14.5449C22.2431 14.0918 22.7273 13.6622 23.2115 13.2326C23.8546 12.6623 24.1875 11.9359 24.248 11.0688C24.2707 10.7642 24.2858 10.4439 24.3691 10.1393C24.4826 9.72527 24.6414 9.34251 24.8306 8.95975C24.8457 8.92851 24.876 8.88945 24.8533 8.8582C24.8306 8.81915 24.8003 8.85039 24.77 8.8582C23.9908 9.03787 23.3174 9.87368 23.2645 10.6861C23.2418 11.0063 23.2267 11.3266 23.098 11.6312C22.7576 12.4514 22.1448 12.9826 21.4033 13.381C20.6543 13.7872 19.8524 14.0684 19.0882 14.4512C18.5057 14.7402 17.9307 15.0683 17.4011 15.451C16.7807 15.8963 16.183 16.3649 15.6383 16.9117C15.1011 17.4507 14.6018 18.0053 14.1857 18.6459C13.7998 19.2473 13.5275 19.8879 13.5426 20.63C13.5502 21.0518 13.7015 21.3877 14.11 21.5595C14.6548 21.786 15.1768 22.0594 15.7896 22.0751C16.236 22.0907 16.6672 22.1063 17.106 22.0282C17.56 21.9501 18.0063 21.8251 18.4452 21.7157C19.1261 21.5361 19.7843 21.3174 20.4047 20.9659C21.1991 20.5128 21.8573 19.9113 22.4247 19.1849C23.0148 18.435 23.4915 17.6226 23.6579 16.654C23.7941 15.8728 23.9151 15.0995 23.8924 14.3027C23.8924 14.0293 23.8243 13.7559 23.7638 13.4669L23.7865 13.4747ZM17.6129 22.5437C17.7188 22.6297 17.7945 22.6844 17.8626 22.7468C18.1425 23.0046 18.3771 23.3015 18.604 23.6217C19.179 24.4497 19.3606 25.3558 19.1185 26.3323C18.9067 27.1915 18.4452 27.8867 17.6886 28.3476C17.3254 28.5663 16.9245 28.6757 16.5235 28.7929C15.9939 28.9413 15.4491 28.8944 14.912 28.9335C14.4505 28.9647 13.9814 28.9725 13.5199 29.0116C12.8314 29.0741 12.1959 29.285 11.6134 29.6677C11.3713 29.824 11.3637 29.8318 11.2275 29.574C10.7509 28.6054 10.07 27.8399 9.16964 27.2696C8.79893 27.0353 8.45847 26.7541 8.14071 26.4338C7.64894 25.9261 7.42197 24.9887 7.86835 24.3482C8.0121 24.1451 8.15584 23.942 8.29203 23.7233C8.11045 23.6295 7.91374 23.6373 7.73973 23.567C7.68677 23.5436 7.67921 23.5905 7.65651 23.6139C7.26309 24.0435 6.98317 24.5278 6.93021 25.1371C6.85455 25.9417 7.11935 26.5979 7.7246 27.1056C8.08775 27.4102 8.46604 27.6836 8.84432 27.9727C9.78246 28.6757 10.5088 29.5349 10.7887 30.7379C10.8417 30.9644 10.8492 30.9644 11.0535 30.8394C11.7722 30.4098 12.5137 30.0271 13.3459 29.8708C14.0495 29.738 14.7455 29.6521 15.4567 29.6365C15.8577 29.6287 16.2587 29.6131 16.6521 29.5584C17.7037 29.4178 18.5662 28.9256 19.1942 28.043C19.8448 27.1368 20.1247 26.1136 19.8675 24.9965C19.633 23.981 19.0807 23.153 18.2938 22.4969C18.203 22.4266 18.1047 22.4422 18.0139 22.45C17.9004 22.4656 17.7945 22.5047 17.6129 22.5516V22.5437ZM9.08642 22.4422C8.85189 22.4656 8.57196 22.4266 8.30716 22.3328C7.00586 21.8954 5.99963 21.0362 5.12958 19.9816C4.66807 19.4192 4.25952 18.8177 3.76776 18.2865C3.48026 17.9663 3.17763 17.6538 2.85988 17.3648C2.78422 17.2945 2.78422 17.2711 2.81448 17.193C2.85988 17.0836 2.90527 16.9664 2.93553 16.8571C3.10198 16.2165 3.15494 15.5604 3.37434 14.9277C3.67697 14.0684 4.199 13.4825 5.08418 13.2638C5.31115 13.2091 5.54569 13.2091 5.77266 13.1623C5.91641 13.131 5.90127 13.0842 5.83318 12.9904C5.74996 12.8733 5.66674 12.7483 5.59865 12.6233C5.54569 12.5296 5.4776 12.4983 5.37168 12.5139C4.84965 12.5764 4.35031 12.7092 3.89637 12.9904C3.17763 13.4357 2.73883 14.0684 2.60264 14.9198C2.53455 15.3182 2.50429 15.7166 2.48159 16.1228C2.45133 16.654 2.28489 17.1617 1.97469 17.607C1.91417 17.6929 1.89904 17.7397 2.01252 17.7944C2.38324 17.9819 2.6783 18.2631 2.95066 18.5756C3.4046 19.0911 3.80559 19.6457 4.23683 20.1769C4.82695 20.9112 5.43977 21.6142 6.25686 22.0985C7.05882 22.575 7.90618 22.9109 8.82919 22.989C9.38148 23.0359 9.94134 23.0281 10.4936 22.9265C11.4545 22.7468 12.2943 22.2938 13.1189 21.786C13.2475 21.7079 13.2248 21.6142 13.1189 21.5361C12.96 21.4189 12.786 21.3877 12.6045 21.497C12.2035 21.7314 11.7722 21.8954 11.3486 22.0673C10.6449 22.3485 9.90351 22.4188 9.10155 22.4188L9.08642 22.4422ZM20.4954 26.9181C20.4198 27.0353 20.4501 27.1759 20.3971 27.3009C20.3214 27.4727 20.4122 27.5587 20.5484 27.6211C20.9494 27.793 21.3655 27.9414 21.7967 27.9805C22.5079 28.043 23.204 27.9336 23.8546 27.6211C24.77 27.1915 25.7006 26.8478 26.722 26.8088C27.2138 26.7853 27.698 26.8478 28.1746 26.9806C28.3637 27.0353 28.4243 26.9962 28.3789 26.8244C28.2805 26.426 28.1746 26.0354 28.1443 25.6214C28.1065 25.0356 28.1216 24.4575 28.2654 23.8873C28.3713 23.4577 28.5302 23.0515 28.6361 22.6219C28.8101 21.911 28.7345 21.2158 28.4924 20.544C28.0233 19.263 26.8582 18.6302 25.6477 18.5443C24.9516 18.4975 24.2934 18.6849 23.6201 18.8568C23.3023 18.9349 23.2267 19.2083 23.0375 19.4114C23.1434 19.4504 23.2115 19.4114 23.2872 19.388C24.0059 19.1849 24.7247 18.9974 25.4888 19.0755C26.3815 19.1692 27.1078 19.5129 27.6299 20.2706C28.0233 20.8331 28.167 21.4736 28.0384 22.161C27.9628 22.575 27.8266 22.9734 27.6753 23.3639C27.4861 23.8639 27.4256 24.395 27.3802 24.9184C27.3575 25.2231 27.3878 25.5511 27.4634 25.8558C27.5088 26.0511 27.4483 26.1292 27.2667 26.0979C26.8279 26.0354 26.3891 26.0198 25.9503 26.0745C25.398 26.1448 24.8533 26.262 24.3388 26.4963C23.9303 26.6838 23.5293 26.8869 23.1132 27.0509C22.6517 27.2306 22.1675 27.3087 21.6681 27.2306C21.2596 27.1681 20.8586 27.0431 20.4652 26.9181H20.4954ZM5.33385 9.67059C5.31872 10.2877 5.54569 11.1157 5.89371 11.7094C6.50653 12.7483 7.21014 13.7169 8.18611 14.4277C8.4736 14.6386 8.7611 14.8417 9.07129 14.998C9.12425 15.0214 9.21504 15.0917 9.21504 14.9667C9.21504 14.8495 9.26043 14.748 9.26043 14.6308C9.26043 14.5371 9.23773 14.4746 9.15451 14.4355C8.65518 14.1856 8.24663 13.8106 7.85322 13.4201C7.11935 12.6858 6.58975 11.8109 6.23416 10.8189C6.00719 10.1783 5.99963 9.54561 6.30982 8.92851C6.52166 8.49888 6.7562 8.08488 6.9756 7.66306C7.41441 6.83506 7.82295 5.99924 7.92131 5.03844C7.92887 4.9447 7.97427 4.9447 8.04236 4.93689C8.23907 4.90564 8.42821 4.8744 8.61735 4.83534C9.16208 4.73379 9.69167 4.49164 10.2667 4.70255C10.5769 4.81972 10.9022 4.88221 11.1367 5.15561C11.1972 5.22591 11.2578 5.21029 11.3183 5.17123C11.3939 5.12436 11.4545 5.06187 11.5301 5.015C11.6587 4.92908 11.6587 4.85097 11.5301 4.74942C11.4091 4.65568 11.3107 4.54632 11.2048 4.44477C10.5769 3.85111 9.82029 3.89017 9.05616 3.96828C8.4963 4.02296 7.95157 4.187 7.37658 4.12451C7.27066 4.1167 7.22527 4.15575 7.21014 4.27292C7.16474 4.66349 7.13448 5.06187 7.04369 5.44463C6.80916 6.44449 6.38548 7.35842 5.84075 8.21767C5.55325 8.67073 5.28846 9.1316 5.32628 9.66278L5.33385 9.67059ZM24.4977 13.7559C24.7852 13.3966 25.0802 13.0529 25.3526 12.6858C25.9049 11.9593 26.4421 11.2172 26.7598 10.3346C27.0549 9.52217 27.3045 8.70198 27.1381 7.81148C27.0473 7.29593 26.9036 6.81162 26.5934 6.382C26.3361 6.02267 26.0108 5.72584 25.7158 5.40557C25.519 5.19467 25.2996 4.99938 25.1937 4.72598C25.1105 4.49945 25.0121 4.28073 24.9138 4.06983C24.8608 3.95266 24.8457 3.83549 24.8306 3.70269C24.7776 3.17933 24.7322 3.0231 24.2253 3.08559C23.7033 3.14808 23.1813 3.20276 22.6517 3.21839C22.1069 3.24182 21.6152 3.40586 21.1461 3.67926C20.6468 3.96828 20.2533 4.36666 19.9583 4.8744C19.8902 4.99157 19.928 5.05406 20.0339 5.10874C20.2685 5.22591 20.4349 5.21029 20.6089 5.00719C21.0326 4.51508 21.5546 4.20262 22.1675 4.01515C22.5155 3.9136 22.8711 3.88235 23.2267 3.8433C23.5217 3.81205 23.7941 3.90579 23.9984 4.14794C24.1043 4.27292 24.1875 4.41353 24.248 4.56194C24.5053 5.17123 24.8835 5.68678 25.3526 6.13203C25.6704 6.43668 25.9654 6.75694 26.1924 7.1397C26.6615 7.93646 26.6615 8.78009 26.3513 9.61591C25.8973 10.8423 25.3299 12.014 24.7171 13.1545C24.6187 13.3419 24.5052 13.5216 24.4826 13.7481L24.4977 13.7559ZM15.9485 15.8572C15.9107 15.7869 15.8804 15.7244 15.8426 15.6697C15.7518 15.5447 15.6534 15.4198 15.5551 15.2948C15.2222 14.8652 14.8969 14.4512 14.458 14.1231C13.6939 13.5528 12.8844 13.0685 12.09 12.5608C11.6209 12.264 11.2351 11.8812 11.0838 11.3266C10.9627 10.897 10.7509 10.5298 10.5239 10.1627C10.1683 9.59247 9.62358 9.31126 9.0032 9.15504C8.97294 9.15504 8.93511 9.15504 8.91998 9.16285C8.87458 9.20972 8.91998 9.25658 8.94267 9.30345C9.19234 9.98304 9.41931 10.6704 9.60089 11.3735C9.73707 11.889 9.91864 12.3733 10.3877 12.6936C10.8795 13.0295 11.341 13.3966 11.9008 13.6231C12.3851 13.8184 12.8693 14.0215 13.3383 14.2402C13.9663 14.5293 14.4959 14.9745 14.9876 15.4666C15.1617 15.6463 15.3659 15.7947 15.5172 15.9978C15.5551 16.0447 15.5475 16.1618 15.661 16.1228C15.7896 16.0759 15.8577 15.9666 15.956 15.865L15.9485 15.8572ZM28.1368 8.91288C28.0309 8.95975 27.872 8.92851 27.819 9.08473C27.7736 9.22534 27.7585 9.38157 27.7282 9.52998C27.7131 9.61591 27.7434 9.67059 27.8341 9.63934C27.9552 9.60029 28.0762 9.63934 28.1973 9.66278C28.6285 9.76432 28.8933 10.0533 29.1052 10.4361C29.317 10.8267 29.5213 11.2251 29.8769 11.5141C30.1719 11.7484 30.4594 11.9984 30.7999 12.178C30.8907 12.2249 30.9134 12.264 30.8377 12.3577C30.7394 12.4749 30.6713 12.6233 30.6107 12.7639C30.3081 13.4279 30.293 14.1465 30.2249 14.8495C30.1795 15.2792 30.1795 15.7166 30.0811 16.1306C29.8163 17.2476 29.196 18.0991 28.1897 18.6302C28.1519 18.6459 28.0989 18.6537 28.0989 18.7162C28.0989 18.8412 28.3562 18.9974 28.4697 18.9427C29.0295 18.6849 29.5364 18.349 29.9374 17.8569C30.293 17.4195 30.5805 16.9586 30.7015 16.3884C30.8453 15.7088 30.9436 15.0214 31.0117 14.334C31.0874 13.5685 31.4127 12.9357 31.8893 12.3655C31.9801 12.264 31.965 12.2327 31.8591 12.1702C31.2538 11.8031 30.7394 11.3266 30.3384 10.7251C30.0055 10.233 29.6726 9.75651 29.2035 9.38938C28.8858 9.14723 28.5453 8.97538 28.1368 8.9207V8.91288ZM16.8564 0.749989C16.4554 0.742177 15.9409 0.874971 15.661 1.1015C15.1011 1.56237 14.4429 1.79671 13.7847 2.04668C13.3535 2.21072 12.9525 2.43725 12.6423 2.78876C12.3397 3.13246 12.1127 3.54646 11.916 3.97609C11.8479 4.12451 11.9614 4.19481 12.0143 4.28855C12.0673 4.37447 12.1278 4.4604 12.264 4.42134C12.4758 4.36666 12.5893 4.21824 12.6952 4.03858C12.9676 3.56209 13.2854 3.12465 13.7998 2.87469C14.6774 2.44506 15.608 2.1326 16.4176 1.56237C16.637 1.40615 16.8942 1.4452 17.0985 1.61705C17.4843 1.93732 17.9231 2.16385 18.3544 2.39819C18.884 2.68721 19.406 2.99186 19.9053 3.33556C20.2306 3.56209 20.2306 3.5699 20.556 3.33556C20.5787 3.31993 20.5938 3.30431 20.6165 3.28869C20.73 3.19495 20.7527 3.10903 20.6316 2.99967C20.5484 2.92936 20.4803 2.85125 20.4047 2.77314C19.9658 2.36695 19.4287 2.1326 18.8991 1.87483C18.5057 1.68735 18.1047 1.47645 17.7869 1.1718C17.4994 0.898405 17.1817 0.7578 16.8488 0.742177L16.8564 0.749989ZM22.0918 12.3108C22.3036 12.0531 22.4474 11.7875 22.4247 11.475C22.3793 10.8579 22.228 10.2564 22.0086 9.68621C21.9783 9.60029 21.9859 9.55342 22.0237 9.48312C22.2129 9.13941 22.4171 8.81134 22.5457 8.43639C22.6971 7.99895 22.7198 7.54589 22.5987 7.09283C22.4323 6.49917 22.0464 6.07735 21.5168 5.81958C21.1612 5.64773 20.7829 5.60867 20.4274 5.85863C20.3895 5.88207 20.3441 5.88988 20.3441 5.94456C20.3441 6.04611 20.5333 6.29607 20.6392 6.3195C20.9343 6.382 21.2293 6.43668 21.4639 6.66321C21.9405 7.12408 22.0313 7.6865 21.8421 8.31141C21.6152 9.05349 21.1234 9.63153 20.6619 10.2174C20.1172 10.9048 19.633 11.6391 19.232 12.428C19.1261 12.6311 19.1563 12.8576 19.179 13.0685C19.179 13.1154 19.179 13.217 19.2547 13.217C19.3076 13.217 19.3379 13.1545 19.3682 13.1076C19.4892 12.9123 19.6103 12.717 19.7313 12.5139C20.2685 11.5688 20.9418 10.7329 21.6681 9.94399C21.6833 9.92836 21.7135 9.92836 21.7287 9.92055C21.8573 10.7173 21.9859 11.5063 22.1145 12.3186L22.0918 12.3108ZM11.7571 11.0766C11.7798 10.9048 11.8025 10.7251 11.8176 10.5533C11.8706 9.82682 11.7268 9.11598 11.6436 8.40514C11.5907 7.99114 11.5604 7.56933 11.6587 7.16313C11.863 6.34294 12.4229 5.87426 13.1567 5.60086C13.5804 5.44463 14.0344 5.42901 14.4807 5.44463C14.8439 5.46025 15.0633 5.24153 15.2751 4.96814C14.8666 4.85097 14.4656 4.8041 14.0722 4.8041C13.5653 4.8041 13.066 4.8744 12.5893 5.09312C11.9235 5.40557 11.4091 5.88207 11.0913 6.53822C10.7433 7.26468 10.7887 8.06144 10.9324 8.82696C11.0762 9.61591 11.4318 10.3346 11.7647 11.0766H11.7571ZM13.8225 7.21781C13.6031 7.42091 13.4594 7.62401 13.3383 7.83491C13.1416 8.1708 13.2248 8.5145 13.2929 8.8582C13.3913 9.35813 13.6334 9.77214 14.0419 10.0533C14.6018 10.4517 15.1919 10.8032 15.7593 11.1938C16.3419 11.5922 16.9245 11.9984 17.386 12.5452C17.7642 12.9904 18.0593 13.4982 18.3165 14.0215C18.4073 14.209 18.5132 14.1153 18.6343 14.0762C18.7705 14.0372 18.7932 13.9512 18.7553 13.8341C18.6192 13.4122 18.4603 13.006 18.2182 12.6389C17.7264 11.9046 17.0758 11.3188 16.3797 10.8111C15.7215 10.3424 15.0557 9.89712 14.4202 9.38938C13.8906 8.95975 13.5956 8.42077 13.7015 7.69431C13.7242 7.54589 13.7696 7.40529 13.815 7.20219L13.8225 7.21781ZM14.4883 8.49888C14.5186 8.41296 14.5413 8.36609 14.5488 8.31141C14.6169 7.76461 14.8136 7.27249 15.1314 6.83506C15.8199 5.9055 16.6521 5.23372 17.8777 5.47588C18.4073 5.57742 18.9067 5.77271 19.2168 6.28826C19.5119 6.78819 19.5876 7.33498 19.5876 7.90522C19.5876 8.02239 19.5573 8.15518 19.6027 8.24111C19.6557 8.35046 19.807 8.28016 19.9053 8.3036C19.9583 8.31922 20.0112 8.32703 20.0642 8.33484C20.1474 8.35046 20.1701 8.31141 20.1701 8.22548C20.1853 7.53808 20.1096 6.8663 19.807 6.23358C19.2622 5.12436 18.203 4.48383 16.9774 4.84315C15.6005 5.24935 14.6396 6.13203 14.3067 7.63182C14.2462 7.91303 14.2689 8.20986 14.4883 8.49107V8.49888ZM9.86568 15.1073C9.83542 15.3104 9.89595 15.5135 9.88838 15.7166C9.88082 16.1775 9.97917 16.6149 10.1078 17.0523C10.3802 17.9819 10.8341 18.8177 11.4318 19.5676C11.8101 20.0441 12.2564 20.4425 12.8087 20.6846C12.8541 20.7081 12.9298 20.7628 12.9449 20.6846C12.9752 20.505 13.0206 20.3175 12.9903 20.1378C12.9676 20.0129 12.839 19.9816 12.7482 19.9269C12.2035 19.6223 11.7647 19.1927 11.4242 18.6615C11.0989 18.1538 10.7736 17.6538 10.6298 17.0523C10.365 16.0056 10.4331 14.9511 10.4936 13.8887C10.5163 13.5216 10.5466 13.5372 10.2288 13.3419C10.1002 13.2638 10.07 13.2873 10.0246 13.4279C9.87325 13.9747 9.89595 14.5449 9.86568 15.1073ZM20.5106 9.25659C20.5711 9.25659 20.6468 9.24877 20.6695 9.18628C20.6922 9.12379 20.6241 9.09255 20.5787 9.06911C20.4652 8.99881 20.3441 8.95194 20.2004 8.95194C19.7237 8.93632 19.2774 9.04568 18.8461 9.23315C18.2257 9.51436 17.6583 9.8815 17.1741 10.3814C17.106 10.4517 17.0228 10.522 17.1287 10.6392C17.2271 10.7486 17.333 10.8032 17.4692 10.7173C17.5373 10.6704 17.5902 10.6158 17.6583 10.5689C18.2938 10.1002 18.9974 9.7487 19.7162 9.45187C19.9659 9.35032 20.208 9.1316 20.5106 9.25659ZM16.8488 7.7568C16.3646 7.76461 15.487 8.49107 15.3659 8.991C15.3281 9.1316 15.3886 9.23315 15.5021 9.28783C15.6307 9.35813 15.6686 9.22534 15.7139 9.14723C15.9636 8.76447 16.2965 8.48326 16.6975 8.29578C16.9093 8.19424 17.1136 8.18643 17.3103 8.36609C17.4767 8.52232 17.6129 8.70198 17.7188 8.89726C17.7415 8.94413 17.7491 9.01443 17.8021 9.01443C17.9458 9.01443 18.0215 8.89726 18.1123 8.79571C18.1728 8.72541 18.1501 8.65511 18.1047 8.59262C17.9458 8.36609 17.7415 8.17861 17.5297 8.00676C17.333 7.85054 17.106 7.74899 16.8488 7.7568ZM27.4029 14.3496C27.3651 14.334 27.3272 14.3496 27.297 14.3574C26.4345 14.6386 25.6704 15.1073 24.8987 15.576C24.3766 15.8963 24.3993 16.4352 24.2631 16.9196C25.2013 15.9197 26.3059 15.1386 27.4029 14.3496ZM6.55192 16.6383C7.75486 17.0289 8.85188 17.5835 9.92621 18.2787C9.84299 17.9585 9.64628 17.7241 9.65385 17.4195C9.65385 17.3726 9.59332 17.3648 9.55549 17.3492C9.10912 17.0914 8.62492 16.943 8.12558 16.8336C7.61112 16.7243 7.08908 16.654 6.55192 16.6383ZM13.2021 9.95961C13.1492 9.99086 13.1189 10.0455 13.0811 10.1002C12.7709 10.5923 12.5137 11.1001 12.317 11.6469C12.2337 11.8812 12.264 11.9671 12.4683 12.0999C12.6045 12.1859 12.665 12.1624 12.7179 12.0062C12.8541 11.6234 13.0508 11.2797 13.2551 10.9282C13.5502 10.4127 13.5956 10.5142 13.2248 9.96742C13.2248 9.96742 13.2173 9.96742 13.2097 9.95961H13.2021ZM23.7033 23.239C23.673 23.1921 23.6352 23.1452 23.5974 23.1062C22.9619 22.411 22.1902 21.911 21.3579 21.5048C21.1158 21.3877 20.8435 21.2627 20.5862 21.497C20.5257 21.5517 20.3971 21.5595 20.4122 21.6376C20.4274 21.7236 20.5484 21.7314 20.6241 21.747C20.9494 21.8173 21.2747 21.8798 21.5773 22.0126C22.3188 22.3563 23.0602 22.7 23.7033 23.2312V23.239ZM14.9271 23.2624C14.7909 23.2077 14.6774 23.2468 14.5942 23.3327C14.3067 23.6217 14.0117 23.9029 13.7544 24.2154C13.2702 24.8012 12.9298 25.4808 12.5818 26.1604C12.5439 26.2307 12.4607 26.2854 12.4834 26.4026C12.5288 26.3557 12.5666 26.3245 12.5893 26.2854C13.0054 25.5824 13.535 24.9809 14.1025 24.4029C14.4278 24.067 14.6774 23.6686 14.9271 23.2624ZM16.4478 7.13189C16.8261 7.0694 17.1968 7.09283 17.5524 7.24906C17.908 7.40529 18.1879 7.66306 18.4527 7.96771C18.5057 7.46778 18.203 7.10064 17.7113 6.83506C17.2498 6.58509 16.8412 6.88974 16.4478 7.1397V7.13189Z" fill="black"/>
</svg>
