<?xml version="1.0" encoding="UTF-8"?>
<svg id="Layer_2" xmlns="http://www.w3.org/2000/svg" viewBox="0 0 234.98 50">
  <g id="Layer_1-2" data-name="Layer_1">
    <path d="M.07,48.79c4.78-2.83,5.12-4.38,5.85-7.94l6.73-31.7c.94-4.44.88-5.32-2.49-7.94l.07-.27h25.57c11.84,0,17.76,4.84,17.76,11.1,0,5.72-4.84,10.09-11.71,12.18,2.15,7.2,3.97,12.12,5.25,15.21,2.69,6.53,5.12,9.22,5.25,9.35l-.07.27h-19.52c-2.49-7.81-4.37-14.94-6.05-22.34l-1.75.13-3.03,14c-.94,4.44-.87,5.32,2.49,7.94l-.07.27H0l.07-.27ZM27.05,25.71c5.45,0,10.83-6.39,10.83-14.94,0-6.33-3.03-8.82-6.53-8.82h-1.15l-4.98,23.76h1.82ZM53.36,30.62C53.36,13.66,66.41,0,85.73,0c13.05,0,20.86,6.26,20.86,19.31,0,16.96-13.05,30.69-32.37,30.69-12.99,0-20.86-6.26-20.86-19.38ZM89.23,16.08c0-8.21-1.48-15.14-6.12-15.14-7.4,0-12.32,17.63-12.32,32.91,0,8.28,1.48,15.21,6.05,15.21,7.34,0,12.38-17.83,12.38-32.98ZM105.38,46.5l3.36-17.16h.27c2.15,9.02,6.8,19.79,13.86,19.79,3.1,0,6.33-2.09,6.33-7.13,0-4.31-2.36-6.26-8.28-11.24-5.12-4.31-9.62-8.14-9.62-15.41,0-10.03,8.48-15.34,18.64-15.34,4.24,0,10.03.94,14.67,2.29l-2.83,16.76h-.27c-2.02-8.35-6.19-18.17-12.25-18.17-2.42,0-5.72,1.68-5.72,5.65s3.57,6.93,8.07,10.7c5.79,4.84,10.57,9.15,10.57,16.76,0,10.23-8.61,16.02-19.65,16.02-6.33,0-13.19-1.95-17.16-3.5ZM221.12.91l-.06.22c2.02,2.64,3.03,4.32,3.03,6s-.95,3.09-1.85,4.32l-9.09,12.51-5.78-13.35c-1.8-4.15-1.85-5.84,3.7-9.48l.06-.22h-60.88l-.06.22c3.37,2.64,3.42,3.53,2.47,7.97l-6.73,31.7c-.9,4.21-1.57,5.27-5.84,7.91l-.11.28h39.95l5.05-16.1h-.28c-4.43,7.01-11.67,15.09-18.46,15.09h-1.07c-2.69,0-4.49-1.23-4.04-3.42l4.38-20.65h1.96c4.99,0,7.86,3.87,8.98,7.41h.28l3.25-15.32h-.28c-2.41,3.25-6.68,7.01-11.73,7.01h-2.19l4.49-21.1h8.7c5.72,0,9.26,3.31,11.28,7.52l.06.17,2.58,6.34v-.04s4.26,10.53,4.26,10.53l-3.03,14.36c-.95,4.43-1.35,5.22-5.84,7.91l-.11.28h24.46l.06-.28c-3.59-2.69-3.59-3.65-2.64-7.91l3.53-15.88,9.99-13.47c2.75-3.7,6.62-7.07,11.33-10.32l.06-.22h-13.86Z"/>
  </g>
</svg>